<mxfile host="app.diagrams.net" agent="Mozilla/5.0 (Windows NT 10.0; Win64; x64; rv:133.0) Gecko/20100101 Firefox/133.0" version="25.0.1">
  <diagram name="Page-1" id="JeT9hdmqLSIuItDdJ_t3">
    <mxGraphModel dx="824" dy="861" grid="1" gridSize="10" guides="1" tooltips="1" connect="1" arrows="1" fold="1" page="1" pageScale="1" pageWidth="827" pageHeight="1169" math="0" shadow="0">
      <root>
        <mxCell id="0" />
        <mxCell id="1" parent="0" />
        <mxCell id="y1bEKRCRlc0KionHaVHA-1" style="edgeStyle=orthogonalEdgeStyle;rounded=0;orthogonalLoop=1;jettySize=auto;html=1;exitX=0.5;exitY=1;exitDx=0;exitDy=0;entryX=0.5;entryY=0;entryDx=0;entryDy=0;" parent="1" target="y1bEKRCRlc0KionHaVHA-4" edge="1">
          <mxGeometry relative="1" as="geometry">
            <mxPoint x="414" y="620" as="sourcePoint" />
          </mxGeometry>
        </mxCell>
        <mxCell id="y1bEKRCRlc0KionHaVHA-16" value="" style="edgeStyle=orthogonalEdgeStyle;rounded=0;orthogonalLoop=1;jettySize=auto;html=1;entryX=0.5;entryY=0;entryDx=0;entryDy=0;" parent="1" source="y1bEKRCRlc0KionHaVHA-4" target="y1bEKRCRlc0KionHaVHA-18" edge="1">
          <mxGeometry relative="1" as="geometry">
            <mxPoint x="414" y="830" as="targetPoint" />
          </mxGeometry>
        </mxCell>
        <mxCell id="y1bEKRCRlc0KionHaVHA-4" value="Input fra brugeren:&lt;div&gt;Benyt lås&lt;/div&gt;" style="shape=parallelogram;perimeter=parallelogramPerimeter;whiteSpace=wrap;html=1;fixedSize=1;" parent="1" vertex="1">
          <mxGeometry x="331" y="650" width="166" height="60" as="geometry" />
        </mxCell>
        <mxCell id="y1bEKRCRlc0KionHaVHA-39" style="edgeStyle=orthogonalEdgeStyle;rounded=0;orthogonalLoop=1;jettySize=auto;html=1;exitX=0;exitY=0.5;exitDx=0;exitDy=0;entryX=1;entryY=0.5;entryDx=0;entryDy=0;" parent="1" source="y1bEKRCRlc0KionHaVHA-18" edge="1">
          <mxGeometry relative="1" as="geometry">
            <mxPoint x="300" y="880" as="targetPoint" />
          </mxGeometry>
        </mxCell>
        <mxCell id="y1bEKRCRlc0KionHaVHA-43" value="Låst" style="edgeLabel;html=1;align=center;verticalAlign=middle;resizable=0;points=[];" parent="y1bEKRCRlc0KionHaVHA-39" vertex="1" connectable="0">
          <mxGeometry x="-0.0444" y="2" relative="1" as="geometry">
            <mxPoint as="offset" />
          </mxGeometry>
        </mxCell>
        <mxCell id="y1bEKRCRlc0KionHaVHA-41" style="edgeStyle=orthogonalEdgeStyle;rounded=0;orthogonalLoop=1;jettySize=auto;html=1;exitX=1;exitY=0.5;exitDx=0;exitDy=0;entryX=0;entryY=0.5;entryDx=0;entryDy=0;" parent="1" source="y1bEKRCRlc0KionHaVHA-18" edge="1">
          <mxGeometry relative="1" as="geometry">
            <mxPoint x="530" y="880" as="targetPoint" />
          </mxGeometry>
        </mxCell>
        <mxCell id="y1bEKRCRlc0KionHaVHA-42" value="Ulåst" style="edgeLabel;html=1;align=center;verticalAlign=middle;resizable=0;points=[];" parent="y1bEKRCRlc0KionHaVHA-41" vertex="1" connectable="0">
          <mxGeometry x="-0.1778" y="-2" relative="1" as="geometry">
            <mxPoint as="offset" />
          </mxGeometry>
        </mxCell>
        <mxCell id="y1bEKRCRlc0KionHaVHA-18" value="Hvad er låsens nuværende status?" style="rhombus;whiteSpace=wrap;html=1;" parent="1" vertex="1">
          <mxGeometry x="349" y="820" width="130" height="120" as="geometry" />
        </mxCell>
        <mxCell id="y1bEKRCRlc0KionHaVHA-50" style="edgeStyle=orthogonalEdgeStyle;rounded=0;orthogonalLoop=1;jettySize=auto;html=1;entryX=1;entryY=0.5;entryDx=0;entryDy=0;exitX=0.5;exitY=0;exitDx=0;exitDy=0;" parent="1" target="y1bEKRCRlc0KionHaVHA-4" edge="1">
          <mxGeometry relative="1" as="geometry">
            <Array as="points">
              <mxPoint x="590" y="680" />
            </Array>
            <mxPoint x="590" y="850" as="sourcePoint" />
          </mxGeometry>
        </mxCell>
        <mxCell id="0qf8okVKioscCAvbD26K-2" style="edgeStyle=orthogonalEdgeStyle;rounded=0;orthogonalLoop=1;jettySize=auto;html=1;exitX=0.5;exitY=0;exitDx=0;exitDy=0;entryX=0;entryY=0.5;entryDx=0;entryDy=0;" parent="1" target="y1bEKRCRlc0KionHaVHA-4" edge="1">
          <mxGeometry relative="1" as="geometry">
            <Array as="points">
              <mxPoint x="240" y="680" />
            </Array>
            <mxPoint x="240" y="850" as="sourcePoint" />
          </mxGeometry>
        </mxCell>
        <mxCell id="ymEipVwwHrK89p57_Rxv-1" value="Start" style="ellipse;whiteSpace=wrap;html=1;" parent="1" vertex="1">
          <mxGeometry x="354" y="540" width="120" height="80" as="geometry" />
        </mxCell>
        <mxCell id="9dS228iLhD7Xvn49rrQr-1" value="&lt;div&gt;Deaktiver låsen,&amp;nbsp;&lt;/div&gt;&lt;div&gt;lås op for cyklen&lt;/div&gt;" style="shape=parallelogram;perimeter=parallelogramPerimeter;whiteSpace=wrap;html=1;fixedSize=1;" parent="1" vertex="1">
          <mxGeometry x="180" y="852" width="125" height="60" as="geometry" />
        </mxCell>
        <mxCell id="9dS228iLhD7Xvn49rrQr-2" value="&lt;div&gt;Aktiver låsen,&amp;nbsp;&lt;/div&gt;&lt;div&gt;lås cyklen&lt;/div&gt;" style="shape=parallelogram;perimeter=parallelogramPerimeter;whiteSpace=wrap;html=1;fixedSize=1;" parent="1" vertex="1">
          <mxGeometry x="525" y="852" width="115" height="60" as="geometry" />
        </mxCell>
      </root>
    </mxGraphModel>
  </diagram>
</mxfile>
